# xmcd
#
# Track frame offsets:
#	150
#	14035
#	29249
#	40991
#	54600
#	65992
#	79429
#	96299
#	112509
#	124535
#	142839
#	158139
#	174844
#	186389
#	198328
#	208261
#
# Disc length: 2916
#
# Revision: 2
# Processed by: cddbd v1.5.1PL0 Copyright (c) Steve Scherf et al.
# Submitted via: CDScan 00.01.00
# Normalized: r0:TDELIM( - ),TSWAP
#
DISCID=e90b6210
DTITLE=KTEL - Sundown
DYEAR=1900
DGENRE=
TTITLE0=Willie Nelson - my heroes have always been cowboys
TTITLE1=eddie Rabbitt - Pour me another tequilla
TTITLE2=Moe bandy and oe Stampley - holding the bag
TTITLE3=Barbara Mandrell - Fooled by  a feeling
TTITLE4=Don WIlliams - it must be love
TTITLE5=John Conlee - baby, you're something
TTITLE6=Gene Watson - nothing sure looked good on you
TTITLE7=Charlie Danliels Band - the devil went down to georgia
TTITLE8=Larry Gatlin - All the gold in california
TTITLE9=Crystal Gayle - Half the way
TTITLE10=Jennifer Warnes - i know a heartache when I see one
TTITLE11=Conway Twitty - don't take it away
TTITLE12=Jim Ed Brown and Helen Cornelius - fools
TTITLE13=Dave and Sugar - stay with me
TTITLE14=the Kendalls - you'd make an angle want to cheat
TTITLE15=Statler Brothers - nothing as original as you
EXTD=
EXTT0=
EXTT1=
EXTT2=
EXTT3=
EXTT4=
EXTT5=
EXTT6=
EXTT7=
EXTT8=
EXTT9=
EXTT10=
EXTT11=
EXTT12=
EXTT13=
EXTT14=
EXTT15=
PLAYORDER=
